<?xml version="1.0" encoding="utf-8"?>
<!-- Generator: Adobe Illustrator 18.1.1, SVG Export Plug-In . SVG Version: 6.00 Build 0)  -->
<!DOCTYPE svg PUBLIC "-//W3C//DTD SVG 1.1//EN" "http://www.w3.org/Graphics/SVG/1.1/DTD/svg11.dtd">
<svg version="1.1" id="Layer_1" xmlns="http://www.w3.org/2000/svg" xmlns:xlink="http://www.w3.org/1999/xlink" x="0px" y="0px"
	 width="150px" height="101px" viewBox="-363 545.1 150 101" enable-background="new -363 545.1 150 101" xml:space="preserve">
<g>
	<g>
		<g>
			<path fill="#FFFFFF" d="M-288.1,564.5v6c-41.4,0-74.9,16.7-74.9,37.2c0,21,33.5,37.9,74.9,37.9c41.5,0,75.1-17.3,75.1-38.7
				C-213,583.5-246.6,564.5-288.1,564.5z M-229.6,577.6c2.7,0,4.9-2.2,4.9-4.9s-2.2-4.9-4.9-4.9s-4.9,2.2-4.9,4.9
				C-234.5,575.4-232.3,577.6-229.6,577.6z"/>
		</g>
	</g>
	<path fill="#00AA14" d="M-266.7,568.7c-0.3,0.8-0.7,1.5-1.2,2.2c10.5,2.3,21.7,6.3,29.7,12.1c0.3,0.2,0,0.7-0.3,0.5
		c-13.6-7-31.3-10.6-49.6-10.6c-38.7,0-70,15.5-70,34.7c0,19.6,31.4,35.4,70,35.4c38.8,0,70.2-16.2,70.2-36.3
		C-217.9,589-238.4,573.9-266.7,568.7z M-229.6,576.7c2.2,0,4-1.8,4-4s-1.8-4-4-4s-4,1.8-4,4C-233.6,574.9-231.8,576.7-229.6,576.7z
		 M-229.6,569.5c1.7,0,3.1,1.4,3.1,3.2c0,1.8-1.4,3.2-3.1,3.2c-1.7,0-3.1-1.4-3.1-3.2C-232.7,571-231.3,569.5-229.6,569.5z
		 M-231.1,574.7c0.1,0,0.2,0,0.4,0s0.3,0,0.4,0c0.1,0,0.1-0.1,0.1-0.2v-1.4h0.3c0.2,0,0.4,0,0.5,0.1c0.1,0.1,0.2,0.3,0.3,0.5
		l0.2,0.7c0,0.1,0,0.1,0.1,0.1c0,0,0.1,0.1,0.1,0.1c0,0,0.1,0,0.2,0c0.1,0,0.2,0,0.3,0c0.1,0,0.2,0,0.3,0c0.1,0,0.1,0,0.2,0
		c0,0,0.1,0,0.1,0c0,0,0-0.1,0-0.1c0,0,0-0.1-0.1-0.3l-0.2-0.7c-0.1-0.3-0.2-0.5-0.4-0.6c-0.1-0.1-0.3-0.2-0.5-0.3
		c0.3-0.1,0.5-0.2,0.7-0.4c0.2-0.2,0.3-0.4,0.3-0.8c0-0.2,0-0.4-0.1-0.5c-0.1-0.2-0.2-0.3-0.3-0.4c-0.1-0.1-0.3-0.2-0.5-0.2
		c-0.2,0-0.4-0.1-0.7-0.1h-1.2c-0.2,0-0.3,0-0.3,0.1c-0.1,0.1-0.1,0.2-0.1,0.4v3.7C-231.2,574.6-231.2,574.7-231.1,574.7z
		 M-230.2,571.2h0.5c0.1,0,0.3,0,0.4,0c0.1,0,0.2,0.1,0.2,0.1c0.1,0,0.1,0.1,0.1,0.2c0,0.1,0,0.1,0,0.2c0,0.2-0.1,0.3-0.2,0.4
		c-0.1,0.1-0.3,0.2-0.6,0.2h-0.4L-230.2,571.2L-230.2,571.2z"/>
	<path fill="#00461B" d="M-250.4,633.1c0.4-0.1,0.6,0.3,0.2,0.5c-9.9,4-23.7,6.3-37.9,6.3c-34.4,0-62.4-14.4-62.4-32.2
		s27.9-32.2,62.4-32.2c38.8,0,62.5,16.8,62.4,31.4c-0.1,12.9-17.3,25.2-52,25.2c-14.5,0-32.8-2.7-47.5-8.6c-0.7-0.3-1,0.7-0.4,1
		C-309.4,633-280.3,639-250.4,633.1z"/>
	<g>
		<ellipse fill="#00461B" cx="-288.1" cy="602.9" rx="56.5" ry="26.4"/>
		<path fill="#004C1B" d="M-288.1,625.8c-31.3,0-55.3-10.8-55-24.5c0.3-13.2,24.5-24.6,55-24.6c30.5,0,54.7,11.5,55,24.6
			C-232.8,615.1-256.8,625.8-288.1,625.8z"/>
		<path fill="#00521A" d="M-288.1,622.4c-31.4,0-54.2-9.7-53.6-22.5c0.6-11.7,23.7-22.8,53.6-22.8c29.9,0,53,11.1,53.6,22.8
			C-233.9,612.7-256.7,622.4-288.1,622.4z"/>
		<path fill="#00571A" d="M-288.1,618.9c-31.5,0-53.1-8.6-52.2-20.6c0.8-10.3,22.9-21,52.2-21c29.3,0,51.4,10.7,52.2,21
			C-235,610.3-256.6,618.9-288.1,618.9z"/>
		<path fill="#005D1A" d="M-288.1,615.5c-31.6,0-52.1-7.5-50.8-18.6c1-8.8,22.1-19.1,50.8-19.1s49.7,10.3,50.8,19.1
			C-236,608-256.5,615.5-288.1,615.5z"/>
		<path fill="#006319" d="M-288.1,612c-31.7,0-51-6.4-49.3-16.7c1.2-7.4,21.3-17.3,49.3-17.3c28,0,48.1,9.9,49.3,17.3
			C-237.1,605.6-256.4,612-288.1,612z"/>
		<path fill="#006919" d="M-288.1,608.6c31.8,0,50.1-5.3,47.9-14.7c-1.4-5.9-20.5-15.5-47.9-15.5c-27.4,0-46.5,9.5-47.9,15.5
			C-338.2,603.2-319.9,608.6-288.1,608.6z"/>
		<path fill="#006919" d="M-288.1,608.6c31.8,0,50.1-5.3,47.9-14.7c-1.4-5.9-20.5-15.5-47.9-15.5c-27.4,0-46.5,9.5-47.9,15.5
			C-338.2,603.2-319.9,608.6-288.1,608.6z"/>
		<path fill="#007018" d="M-288.1,606.7c31.1,0,47.7-4.7,45.9-13.5c-1.2-5.7-19.8-14.4-45.9-14.4c-26.1,0-44.8,8.7-45.9,14.4
			C-335.8,602-319.2,606.7-288.1,606.7z"/>
		<path fill="#007617" d="M-288.1,604.9c30.5,0,45.4-4.1,43.9-12.3c-0.9-5.4-19.1-13.3-43.9-13.3s-43,7.9-43.9,13.3
			C-333.5,600.9-318.6,604.9-288.1,604.9z"/>
		<path fill="#007D17" d="M-288.1,603.1c29.8,0,43-3.4,41.9-11.1c-0.7-5.1-18.4-12.2-41.9-12.2s-41.2,7.1-41.9,12.2
			C-331.1,599.7-317.9,603.1-288.1,603.1z"/>
		<path fill="#008416" d="M-288.1,601.3c29.1,0,40.6-2.8,39.9-9.9c-0.5-4.8-17.7-11.1-39.9-11.1c-22.3,0-39.5,6.3-39.9,11.1
			C-328.7,598.5-317.2,601.3-288.1,601.3z"/>
		<path fill="#008A15" d="M-288.1,599.5c28.4,0,38.3-2.1,37.9-8.8c-0.2-4.5-17-10-37.9-10s-37.7,5.5-37.9,10
			C-326.4,597.3-316.5,599.5-288.1,599.5z"/>
		<path fill="#009114" d="M-288.1,597.6c27.8,0,35.9-1.5,35.9-7.6c0-4.3-16.2-9-35.9-9c-19.7,0-35.9,4.7-35.9,9
			C-324.1,596.1-315.9,597.6-288.1,597.6z"/>
		<path fill="#009114" d="M-288.1,597.6c27.8,0,35.9-1.5,35.9-7.6c0-4.3-16.2-9-35.9-9c-19.7,0-35.9,4.7-35.9,9
			C-324.1,596.1-315.9,597.6-288.1,597.6z"/>
		<path fill="#009514" d="M-288.1,595.9c-24.9,0-33.2-1.2-33.2-6.2c0-3.6,15-7.6,33.2-7.6c18.2,0,33.2,4,33.2,7.6
			C-254.9,594.7-263.2,595.9-288.1,595.9z"/>
		<path fill="#009914" d="M-288.1,594.1c-22.1,0-30.5-0.8-30.5-4.9c0-3,13.7-6.3,30.5-6.3c16.7,0,30.5,3.3,30.5,6.3
			C-257.7,593.3-266,594.1-288.1,594.1z"/>
		<path fill="#009E14" d="M-288,592.3c-19.3,0-27.8-0.5-27.8-3.6c0-2.3,12.5-5,27.7-5c15.2,0,27.7,2.7,27.7,5
			C-260.4,591.8-268.8,592.3-288,592.3z"/>
		<path fill="#00A214" d="M-288,590.5c-16.4,0-25.1-0.1-25.1-2.3c0-1.7,11.2-3.7,25-3.7c13.7,0,25,2,25,3.7
			C-263.1,590.4-271.6,590.5-288,590.5z"/>
		<path fill="#00A614" d="M-288,588.7c-13.6,0-22.3,0.2-22.3-1c0-1.1,10-2.4,22.2-2.4s22.2,1.3,22.2,2.4
			C-265.9,589-274.4,588.7-288,588.7z"/>
		<path fill="#00AA14" d="M-268.6,587.3c0,0.3-8.6-0.3-19.4-0.3c-10.8,0-19.6,0.6-19.6,0.3c0-0.4,8.7-1.1,19.5-1.1
			C-277.3,586.2-268.6,586.9-268.6,587.3z"/>
	</g>
	<path fill="#FFFFFF" d="M-304.2,620.2c-2.6-4.6-5.3-16.6-8-32c-0.2-1.1-0.4-1.5-1.4-1.5c-1.3,0-4.7,0.4-6.1,0.9
		c-1,2.5-2.4,4.9-7,11.9c-11.7,17.7-12.3,22.5-2,20.9c-0.2-1.6-0.1-4,1.8-7.6c0,0,2.5-1.4,12-1.5
		C-313.1,621-311.7,621.1-304.2,620.2z M-324.4,607c2.2-4.2,5.4-8.9,7-12.4c0.3,3.1,1.6,11.7,1.6,11.7
		C-319.5,606.2-322.5,606.6-324.4,607z M-283.9,595.9c-3,0-6.8,2.9-9.1,7.7c0.3-2.2,0.5-4.8,0.2-6.2c-0.1-0.5-0.4-0.9-1.8-0.8
		c-1.6,0.1-3.7,0.7-5,1.4c0,0,1.1,2.9-1.3,17.5c-0.7,4.4,2.3,5.7,7.4,4.9c-2-2.9,1.6-20.5,9.9-16.9
		C-280.3,598.4-281.2,595.9-283.9,595.9z M-271.9,605.4c2.2-11.6,2.8-17.9,2.8-19.9c0-0.6-0.3-1.4-2.1-1.4c-2.4,0-4,0.6-5.4,1.3
		c0.2,0.7,0.8,5.6-3.5,25.7c-1.8,8.6-0.2,10.5,7,9.2C-273.6,618.2-273.6,614.3-271.9,605.4z M-242.8,600.5c0.4-2.2-0.2-3.1-2.1-3.6
		c-12.8-3.6-22.4,4.5-22.4,15.6c0,4.2,2.1,8.2,6.7,8.2c3.7,0,7-2.5,9.3-5.4c0,0-0.1,1.9,0.1,3.1c0.4,2,2.4,3,7,1.5
		C-245,617.1-244.6,610.3-242.8,600.5z M-249.4,601.1c-0.7,7.1-3.5,14.1-7.9,14.1c-1.8,0-3.1-1.4-3.1-3.8
		C-260.4,605.4-255.6,599.1-249.4,601.1z"/>
	<path fill="#FFFFFF" d="M-314.6,565.4c-3.6,2.5-3.4,9.6,0.8,14.6c4.1,5,10.6,5.8,14.8,3.6c-0.8,4.7,1.7,9.6,11.3,6.5
		c9.7-3.1,10.2-9.6,8.2-14.4c5.4,0.4,11.2-1.9,13-7.5c1.3-4.1,0.5-9.2-3.8-11.8c0.2-5.9-7.1-11-14.3-10.9c-3.7,0.1-6,2.4-6.2,5.5
		c-4.8-5.3-11.3-5.4-17.5,0c-6,5.2-7.1,12.4-4,15.4C-312.8,566.2-314.3,565.6-314.6,565.4z"/>
	
		<radialGradient id="SVGID_1_" cx="-61.4589" cy="2478.0198" r="82.2108" gradientTransform="matrix(0.4319 -5.450000e-02 5.450000e-02 0.4319 -409.6015 -497.3984)" gradientUnits="userSpaceOnUse">
		<stop  offset="0" style="stop-color:#F0E15A"/>
		<stop  offset="9.760001e-02" style="stop-color:#F0DD55"/>
		<stop  offset="0.2157" style="stop-color:#F0D346"/>
		<stop  offset="0.3" style="stop-color:#F0C837"/>
		<stop  offset="1" style="stop-color:#F0AA00"/>
	</radialGradient>
	<path fill="url(#SVGID_1_)" d="M-288.6,571.7c4.8-0.9,14.4,11.9,0.2,16.5C-305.3,593.6-292.8,572.5-288.6,571.7z M-270.4,559
		c-1,1.3-3.1,3.1-4.6,3.5c7.4-8.8-3.1-14.9-9.6-14.7c-1.9,0.1-3.5,0.8-3.9,2.7c-1,4.8,3.3,10.4,1.8,17.6c-1,4.9,15.3,9.7,18.3-1.2
		C-267.8,565-268,560.9-270.4,559z M-310.3,580.5c10.1,7.3,17.6-6.3,16.4-7.8c-2.7-3.2-0.8-8.3,4.8-7.5c2.9,0.4-0.9-16.1-9.9-16.1
		c-8.4,0-20.7,15.2-5.7,20.1c-3,0.1-7-0.2-9.3-1.2C-316.1,570.1-314.9,577.1-310.3,580.5z"/>
</g>
</svg>
